<svg width="140" height="32" viewBox="0 0 140 32" fill="none" xmlns="http://www.w3.org/2000/svg">
<path d="M0.375 29.5L0 26.2L4.275 14.425C4.65 14.775 5.05625 15.0687 5.49375 15.3062C5.93125 15.5437 6.4 15.725 6.9 15.85L2.775 27.175L0.375 29.5ZM16.125 29.5L13.725 27.175L9.6 15.85C10.1 15.725 10.5688 15.5437 11.0063 15.3062C11.4438 15.0687 11.85 14.775 12.225 14.425L16.5 26.2L16.125 29.5ZM8.25 14.5C7 14.5 5.9375 14.0625 5.0625 13.1875C4.1875 12.3125 3.75 11.25 3.75 10C3.75 9.025 4.03125 8.15625 4.59375 7.39375C5.15625 6.63125 5.875 6.1 6.75 5.8V2.5H9.75V5.8C10.625 6.1 11.3438 6.63125 11.9062 7.39375C12.4688 8.15625 12.75 9.025 12.75 10C12.75 11.25 12.3125 12.3125 11.4375 13.1875C10.5625 14.0625 9.5 14.5 8.25 14.5ZM8.25 11.5C8.675 11.5 9.03125 11.3563 9.31875 11.0688C9.60625 10.7812 9.75 10.425 9.75 10C9.75 9.575 9.60625 9.21875 9.31875 8.93125C9.03125 8.64375 8.675 8.5 8.25 8.5C7.825 8.5 7.46875 8.64375 7.18125 8.93125C6.89375 9.21875 6.75 9.575 6.75 10C6.75 10.425 6.89375 10.7812 7.18125 11.0688C7.46875 11.3563 7.825 11.5 8.25 11.5Z" fill="#B5BFA1"/>
<path d="M29.204 24L24.932 7.2H28.196L31.748 21.96H32.084L35.636 7.2H38.9L34.628 24H29.204ZM45.7199 24V7.2H56.5199V10.08H48.8879V14.088H55.8479V16.968H48.8879V21.12H56.6639V24H45.7199ZM63.809 24V7.2H71.105C72.161 7.2 73.081 7.384 73.865 7.752C74.649 8.12 75.257 8.64 75.689 9.312C76.121 9.984 76.337 10.776 76.337 11.688V11.976C76.337 12.984 76.097 13.8 75.617 14.424C75.137 15.048 74.545 15.504 73.841 15.792V16.224C74.481 16.256 74.977 16.48 75.329 16.896C75.681 17.296 75.857 17.832 75.857 18.504V24H72.689V18.96C72.689 18.576 72.585 18.264 72.377 18.024C72.185 17.784 71.857 17.664 71.393 17.664H66.977V24H63.809ZM66.977 14.784H70.769C71.521 14.784 72.105 14.584 72.521 14.184C72.953 13.768 73.169 13.224 73.169 12.552V12.312C73.169 11.64 72.961 11.104 72.545 10.704C72.129 10.288 71.537 10.08 70.769 10.08H66.977V14.784ZM87.3798 24V10.08H82.4838V7.2H95.4438V10.08H90.5478V24H87.3798ZM102.401 24V7.2H113.201V10.08H105.569V14.088H112.529V16.968H105.569V21.12H113.345V24H102.401ZM119.434 24L124.354 15.528L119.482 7.2H123.082L126.418 13.272H126.85L130.186 7.2H133.786L128.914 15.528L133.834 24H130.234L126.85 17.784H126.418L123.034 24H119.434Z" fill="#B5BFA1"/>
</svg>
